<svg xmlns="http://www.w3.org/2000/svg" xmlnsSvgjs="http://svgjs.com/svgjs" xmlnsXlink="http://www.w3.org/1999/xlink" width="360" height="360"><svg xmlns="http://www.w3.org/2000/svg" width="360" height="360" enable-background="new 0 0 1080 1080" viewBox="0 0 1080 1080"><path fill="#daf1a1" d="M770.2 668.3s62.5-116.4-15.3-157.5-89.7-85.7-61.1-127.5c28.6-41.9-156-126.2-167-14.6s-90.1 57.8-153.2 12.6-93.1 29.9-29.6 87.7-120.9 141.3-49.9 207.8l476.1-8.5z" class="color00aef0 svgShape" opacity=".07"/><path fill="#e8ffe8" d="M893.3 682.6H168.2c-3.9 0-7.1-3.2-7.1-7.1v-4.3c0-3.9 3.2-7.1 7.1-7.1h725.1c3.9 0 7.1 3.2 7.1 7.1v4.3c.1 3.9-3.1 7.1-7.1 7.1z" class="colordbdbdb svgShape"/><path fill="#ffbf66" d="M569.4 469h-.6c-9.3.3-13.9 12.7-17.9 19.4-4.7 8-9.3 16.2-13.4 24.6-2.7 5.7-12.6 22.3-7.7 28.8 3.9 5.2 8.2 3.8 11.6.9 3.7-3.1 4.9-7.9 6.3-12.5 2.1-6.7 5.4-13.1 8.3-19.5 2.6-5.7 5.3-11.5 7.9-17.2 1.4-3.1 2.5-7.1 4.6-9.8 1.9-2.4 4.1-3.7 5.3-6.9.7-1.9 1-4.2-.2-5.9-.8-1.3-2.5-1.9-4.2-1.9zM622 496s7.5 2.7 12.1 7.6c4.6 4.9 4 8.7 3.2 10.7-.5 1.4-2.3 5.6-3.8 3.6-1.6-2-11.1-8.2-13.3-10.1-2.2-1.9-3.7-6.5-3.4-7.1.2-.6 5.2-4.7 5.2-4.7z" class="colorb97a59 svgShape"/><path fill="#ffbf66" d="M565.1 469c-3.1 1.8-4.8 3.3-4.4 8.7.4 4.5 3.5 3.7 13.7 7.5 20 5.7 31.7 11.4 44.1 19.4 13.9 8.9 10.1-2.7 10.1-2.7-9.4-8.6-27-20.9-42.6-27.2-7.2-3-11.7-5.3-20.9-5.7zM634.2 535.4l-6.7 7.9c2.4 13.8 20 71.7 22.8 78.8 3.2 8 8.5 4.1 8.5 4.1s7.4-21.6-19.3-80.2c0-.3-5.2-10.5-5.3-10.6z" class="colorb97a59 svgShape"/><path fill="#cce09a" d="M630.6 559c8.5 35.2 11 82.6 14.1 91.1 4.7 12.9 25.1 6.2 25.1 6.2s5.9-19.8-26.1-101.4l-13.1 4.1z" class="colorffbe55 svgShape"/><path fill="#ffbf66" d="M568.5 531c1.4-4.6-5.2-18.6-10.3-15-5.9 4.3-28.5 17.9-30.6 19.9-5.4 5.3-2.1 16.1 1.7 15.1 3.9-.9 38.2-16.8 39.2-20z" class="colorb97a59 svgShape"/><path fill="#f77f66" d="M597 541.6c-4.6-1.7-9.8.7-11.5 5.3-1.7 4.6.7 9.8 5.3 11.5 4.6 1.7 9.8-.7 11.5-5.3 1.7-4.7-.7-9.8-5.3-11.5z" class="color0e538c svgShape"/><path fill="#ffbf66" d="M598.2 525.5c-.5 2 .2.2-1.7 5.6 0 .1-.1.2-.1.3 0 .1-.1.2-.1.3-2 5.4-5.2 6.1-6 8-4.5 9.6-23.5-3.2-28.4-11.3-2.7-4.4-3.6-13.1-2.5-20.3.3-2.1 3.5-2.5 7.4-2.3.9.1 1.9.2 2.9.3l3.6.6c3.8.8 7.6 2.4 9.6 3.1 10.2 3.7 18 5.5 15.3 15.7z" class="colorb97a59 svgShape"/><path fill="#f77f66" d="M604.1 523.7c.9 1.4 1.2 3.2 1.1 4.9 0 0-.2 2.5-.4 2.9-1.5 7-7.6 13.1-14.1 15.7-4.1 1.7-8.8 1.5-13 .1-5.7-1.9-10.5-5.7-14-10.6-1.7-2.4-2.9-5-3.7-7.8-.2-.9-1-2.7-.4-3.5.8-1.1 3.2-.7 4.2-.5 1.7.3 2.9 1.5 4.5 2 2.5.7 5.8.2 8.4.4 2.3-1.4 4-.9 6.4-.2 2.2.6 4.7.8 6.5-.5 2.6-1.9 3.1-6.1 6.1-7.3 1.4-.5 3-.2 4.3.5 1.7.9 3.1 2.3 4.1 3.9z" class="color0e538c svgShape"/><path fill="#f77f66" d="M578 523.8c-2.8 1-5.3 2.5-7.9 3.8-2.2 1.2-3.8.8-6.3.5-.5-.1-1.1-.1-1.6 0s-1 .5-1.1 1c-.1.5.2 1.1.5 1.5.8 1.3 1.7 2.6 3.1 3.2 1.5.6 3.1.3 4.5 1.3 1.1.8 1.8 2.2 2.5 3.4 2.8 4.3 6.6 4.7 10.4 7 3 1.8 7 1.4 10.5-.5 5.6-3 11.1-8.6 12.1-15.1.5-3.4-.1-7.7-2.1-10.6-1.6-2.3-5.9-5.1-8.7-3.7-1.3.7-2.1 2-2.9 3.2-.8 1.2-2 2.3-3.5 2.3-.7 0-1.4-.3-2-.4-3-.5-6.3 3.1-9 1.4-1-.6-1.3-1.8-2.5-2.3-1.9-.7-3.3.4-4.9 1.3-3.4 1.8-7.9 1.3-10.7-1.2 1.4 2.1 3.7 3.7 6.2 4.1 1.8.3 3.7 0 5.6.1 1.9.1 4.1.7 4.9 2.5" class="color0e538c svgShape"/><path fill="#ffbf66" d="M571.7 507.4c.8-.4 3.8-2.3 4.5-2.2.6.1-1.4.5-.5 1.3 1.6 1.5 4.8 3.5 7.3 4.2M576.7 531.7c1 1 1.8 2 2.5 3.2.3.6.6 1.4.3 2-.3.6-1 .8-1.6.8-1.6.2-3.1-.3-4.5-1.1s-2.5-1.8-3.7-2.8c-1.3-1.1-1-1.7-1.4-3.3" class="colorb97a59 svgShape"/><path fill="none" d="M598.9 638.4c.2.4.4.9.7 1.3"/><path fill="#aef0ae" d="M560 664.7c-1-9.7 7.2-20.4 2-27.8h-52.8c-4.5 8.3-6.9 17.9-8.1 26.6l58.9 1.2z" class="colorf0c0ae svgShape"/><path fill="#cce09a" d="M523 662.4c-37.8 5.2-86.3.4-96.7-2.2-10.4-2.6-8.4-18.2 2.2-24.5 13.1-7.8 80.9-8.6 91.3-6.9 7.7 1.2 11.6 32.4 3.2 33.6z" class="colorffbe55 svgShape"/><path fill="#002a30" d="M525 676.6c.2-.1.5-.2.9-.3-.4.1-.7.2-.9.3zM527.1 675.9c.2-.1.4-.2.6-.2-.2 0-.4.1-.6.2zM524.4 676.8c.1 0 .3-.1.5-.2-.2.1-.3.1-.5.2zM524.3 676.8s.1 0 0 0c.1 0 0 0 0 0zM431.5 661.8v.9-.9zM431.5 664v.7-.7zM431.5 661.2v.5-.5zM431.6 661.1s-.1 0 0 0c-.1 0 0 0 0 0z" class="color300000 svgShape"/><path fill="#cce09a" d="M552.6 665.9c38.8 3.1 103.8-4 114.3-7.2 11.7-3.6-13.7-26.9-13.7-26.9s-93.5-6.3-104-4c-4 .9-10.6 11.2-8.4 20.3 3.1 12.8 7.7 17.5 11.8 17.8z" class="colorffbe55 svgShape"/><path fill="#ffbf66" d="m514.1 663.5-.1-9.1c-13.7-2.9-69.3-11.4-77-11.4-8.7 0-6.2 17-6.2 17s10 7.3 74.4 4.3c.2-.1 8.7-.8 8.9-.8z" class="colorb97a59 svgShape"/><path fill="#cce09a" d="M496.4 651c-13.5-2.5-34.4-7.5-49.5-11.4-7-1.8-19.2-5.2-22.6-.6-13.9 18.9 5.3 22.3 5.3 22.3s10.2 5.2 65.7 3.2l1.1-13.5z" class="colorffbe55 svgShape"/><path fill="#ffbf66" d="m553.9 557 .1.1c0-.1.1-.2.1-.2l-.1-.2c1.3-3.4 2.1-6.4 2.2-10.1.1-3.6-.2-7.2.6-10.7-.3.3-.7-1-1-1.3-1.8-1.6-3.2-3.6-4.9-5.2-1.1-1-2.5-1.1-4-1.4-.5-.1-1-.2-1.5-.2l-.2-.8c-49.3 18.1-41.1 41.4-41.1 41.4l8.5 56.7h42c-6.9-19.8-9.2-46.3-.7-68.1z" class="colorb97a59 svgShape"/><path fill="none" d="M552.6 566c-.2.1-.4.2-.7.3"/><path fill="#aef0ae" d="M524.8 536.4c-4.6 1.7-9.1 3.4-13.7 5.2-2.9 1.1-5.9 2.2-8.4 4.2-3.5 2.8-5.7 7.3-5.5 11.8.2 4.5 2.8 8.9 6.8 11" class="colorf0c0ae svgShape"/><path fill="#daf1a1" d="M511.7 619.9c6.2.1 12.9-.8 18.8-2.1 7.2-1.6 14.8-4.4 21.1-8.7-4.8-17-4-35.7 2.3-52.2l.1.1c0-.1.1-.2.1-.2l-.1-.2c-.2-.6 1-2.8 1.2-3.5.4-1.2.6-2.5.8-3.8.3-2.5-.1-5.3-.9-7.7-.5-1.5-1.4-3-2.8-3.9-1-.6-2.1-1-3.3-1.2-4.3-.8-8.3-.1-12.5.3-3.4.3-7.9.9-11-1-27.4 16-21.6 32.5-21.6 32.5l7.8 51.6zm20.7-69.1c1.7-3.1 4.5-5.5 7.7-7 2.4-1.2 4.8-1.5 7.1.1 1.9 1.3 3.1 3.6 3.3 5.9.2 2.7-.4 6.6-1.4 9.2-1 2.6-2.5 5.1-5 6.4-4.7 2.7-8.3-.3-11.5-3.6-3-3-2.2-7.3-.2-11z" class="color00aef0 svgShape"/><path fill="#daf1a1" d="M524.8 536.4c-4.6 1.7-9.1 3.4-13.7 5.2-2.9 1.1-5.9 2.2-8.4 4.2-3.5 2.8-5.7 7.3-5.5 11.8.2 4.5 2.8 8.9 6.8 11" class="color00aef0 svgShape"/><path fill="#ffbf66" d="M506.8 621.6c5.8 2.2 11.8-3.4 17.5-11.2 21.3-31.9 28.1-55.8 23.2-62.7-8.1-11.2-15 5.6-15 5.6-2.2 4 1.8 3-16.5 44.2-3 6.7-3 5.9-8.3 14.8-1.1 1.9-5.8 7.4-.9 9.3z" class="colorb97a59 svgShape"/><path fill="#ffbf66" d="M520.1 616.1c-.5-3.5 2.6-9-2.6-10.5-4.3-1.3-4.7 1.8-12 9.9-12.6 16.4-28 30.9-40 39.4-13.4 9.5 4 6.9 4 6.9 16.8-8.2 34.9-26.2 50.6-45.7z" class="colorb97a59 svgShape"/><path fill="#ffbf66" d="M465.6 654.8c-.5 1.3-4 3.4-5.2 3.9-5.8 2.6-12.2 3.8-18.5 3.6-.3.3 0 .7.4 1 4.9 3.4 11.3 3.8 17.3 3.1 3.6-.4 10.9-3.1 12.9-6.1M627.7 544c-.9-5.3-8.8-7-9.7-12.2-.4-2.3.8-4.6 1.7-6.8 1.9-4.5 1.7-10.4 1.3-15.2-.1-1.5-.3-3 0-4.4.3-1.5 1.2-2.9 2.5-3.4.1-.1.3-.1.5-.1.3.1.5.3.6.6.8 2.1.6 4.5 1.4 6.6.7 2.1 1.8 4.1 2.5 6.2 1.4 3.8 1.6 7.5 2.4 11.4.9 4.4 3.2 8 5.6 12.9" class="colorb97a59 svgShape"/><path fill="#cce09a" d="M513 635.1s4 28.4 43.5 31.1l-2.4-33.7c.1 0-43.1-2-41.1 2.6z" class="colorffbe55 svgShape"/><path fill="#ffbf66" d="M512 653.9c5.2 1.4 10-5.1 15.2-3.7 2.3.6 3.8 2.7 5.5 4.4 3.4 3.6 8.7 5.9 13.3 7.5 1.4.5 2.8.9 4 1.8 1.2.9 2.1 2.3 2 3.7 0 .2 0 .3-.1.4-.2.2-.5.3-.8.3-2.2-.1-4.3-1.3-6.6-1.5-2.2-.2-4.5-.1-6.7-.3-4-.3-7.4-1.7-11.4-2.6-4.4-1-8.6-.5-14.1-.3" class="colorb97a59 svgShape"/><path fill="#cce09a" d="M512.5 625.2c-.6 3.6-.5 9.9 2.5 14.5l20.2-.8 26.7-2c-1.4-3.6-10.1-21-11.2-25.2 0 0-9.9 8.4-18.8 10.3-7.7 1.7-19.4 3.2-19.4 3.2z" class="colorffbe55 svgShape"/><path fill="#cce09a" d="M550.8 611.7s32.4 1.7 40.4 20.3l-36.7 7-3.7-27.3z" class="colorffbe55 svgShape"/><path fill="#ffbf66" d="M616.8 501.6s-2.9 8.3 10.2 14.5c0 0 1.6-1.5-2-5.9-2.5-3.2-4.8-5.8-6.5-7.3-.7-.7-1.2-1.1-1.7-1.3z" class="colorb97a59 svgShape"/><path fill="#cce09a" d="M749.1 664s-23.5-80.3 41.2-109.3 15.9-72.4 15.9-72.4 56.2 29.7 39 93.9-73.5 87.8-96.1 87.8z" class="colorffbe55 svgShape"/><path fill="#cce09a" d="M751.6 662.4s-9.6-83.1 59-100.8 27.9-68.7 27.9-68.7 50.4 38.7 22.6 99.1c-27.8 60.5-87.2 74.3-109.5 70.4z" class="colorffbe55 svgShape" opacity=".45"/><path fill="#cce09a" d="M746.8 655s15.1-82.3 85.9-79.1 46.8-57.5 46.8-57.5 36.9 51.8-7.4 101.4C827.8 669.4 767 665.2 746.8 655zM341.7 664s23.5-80.3-41.2-109.3-15.9-72.4-15.9-72.4-56.2 29.7-39 93.9c17.2 64.2 73.5 87.8 96.1 87.8z" class="colorffbe55 svgShape" opacity=".45"/><path fill="#cce09a" d="M339.1 662.4s9.6-83.1-59-100.8-27.9-68.6-27.9-68.6-50.4 38.7-22.6 99.1 87.3 74.2 109.5 70.3z" class="colorffbe55 svgShape" opacity=".45"/><path fill="#cce09a" d="M344 655s-15.1-82.3-85.9-79.1-46.8-57.5-46.8-57.5-36.9 51.8 7.4 101.4C263 669.4 323.8 665.2 344 655z" class="colorffbe55 svgShape" opacity=".45"/></svg></svg>